<svg width="733.333" height="733.333" viewBox="0 0 22 22" fill="none" xmlns="http://www.w3.org/2000/svg"><path d="M22 11c0 6.075-4.925 11-11 11S0 17.075 0 11 4.925 0 11 0s11 4.925 11 11zM2.007 11a8.993 8.993 0 1 0 17.986 0 8.993 8.993 0 0 0-17.986 0z" fill="#0f0f0f"/><path d="M12.5 17a1.5 1.5 0 1 1-3 0 1.5 1.5 0 0 1 3 0zM10 11v2s0 1 1 1 1-1 1-1v-2s.48-.137.663-.212c0 0 .334-.119.568-.298.234-.18.445-.393.634-.64.2-.246.357-.532.468-.858.111-.325.167-.588.167-.992 0-.673-.15-1.363-.45-1.868a2.964 2.964 0 0 0-1.237-1.195c-.534-.291-1.158-.437-1.87-.437-.446 0-.84.056-1.186.168a3.293 3.293 0 0 0-.919.42 2.956 2.956 0 0 0-.65.573 3.46 3.46 0 0 0-.402.589c-.1.19-.167.359-.2.505a1.43 1.43 0 0 0-.084.521c.023.135.09.247.2.337.112.09.285.185.519.286.244.078.434.106.567.084a.537.537 0 0 0 .351-.202s.475-.675.608-.81c.145-.146.323-.258.535-.336.211-.09.45-.135.718-.135.579 0 1.008.14 1.286.42.29.27.377.496.377 1.012 0 .348-.061.628-.184.841a1.549 1.549 0 0 1-.484.522s-.272.104-.495.205c-.211.09-.6.238-.8.35-.19.101-.296.207-.418.364-.123.157-.282.517-.282.786z" fill="#0f0f0f"/></svg>