<?xml version="1.0" encoding="UTF-8" standalone="no"?>
<!-- Uploaded to: SVG Repo, www.svgrepo.com, Generator: SVG Repo Mixer Tools -->

<svg
   width="733.33331"
   height="733.33331"
   viewBox="0 0 21.999999 21.999999"
   fill="none"
   version="1.1"
   id="svg3"
   sodipodi:docname="svgrepo-com-help.svg"
   inkscape:version="1.3 (0e150ed6c4, 2023-07-21)"
   xmlns:inkscape="http://www.inkscape.org/namespaces/inkscape"
   xmlns:sodipodi="http://sodipodi.sourceforge.net/DTD/sodipodi-0.dtd"
   xmlns="http://www.w3.org/2000/svg"
   xmlns:svg="http://www.w3.org/2000/svg">
  <defs
     id="defs3" />
  <sodipodi:namedview
     id="namedview3"
     pagecolor="#ffffff"
     bordercolor="#666666"
     borderopacity="1.0"
     inkscape:showpageshadow="2"
     inkscape:pageopacity="0.0"
     inkscape:pagecheckerboard="0"
     inkscape:deskcolor="#d1d1d1"
     showgrid="false"
     inkscape:zoom="1.2025"
     inkscape:cx="366.32017"
     inkscape:cy="366.73597"
     inkscape:window-width="1920"
     inkscape:window-height="1200"
     inkscape:window-x="26"
     inkscape:window-y="742"
     inkscape:window-maximized="0"
     inkscape:current-layer="svg3" />
  <path
     d="M 22,11 C 22,17.0751 17.0751,22 11,22 4.92487,22 0,17.0751 0,11 0,4.92487 4.92487,0 11,0 17.0751,0 22,4.92487 22,11 Z M 2.00683,11 c 0,4.9668 4.02638,8.9932 8.99317,8.9932 4.9668,0 8.9932,-4.0264 8.9932,-8.9932 C 19.9932,6.03321 15.9668,2.00683 11,2.00683 6.03321,2.00683 2.00683,6.03321 2.00683,11 Z"
     fill="#0f0f0f"
     id="path1" />
  <path
     d="m 12.5,17 c 0,0.8284 -0.6716,1.5 -1.5,1.5 -0.8284,0 -1.5,-0.6716 -1.5,-1.5 0,-0.8284 0.6716,-1.5 1.5,-1.5 0.8284,0 1.5,0.6716 1.5,1.5 z"
     fill="#0f0f0f"
     id="path2" />
  <path
     d="m 10,11 v 2 c 0,0 0,1 1,1 1,0 1,-1 1,-1 v -2 c 0,0 0.4792,-0.1371 0.6629,-0.2117 0,0 0.334,-0.1192 0.5678,-0.2987 0.2339,-0.1794 0.4454,-0.3926 0.6347,-0.6393 C 14.0658,9.6035 14.2217,9.3175 14.333,8.99221 14.4443,8.66693 14.5,8.4038 14.5,8 14.5,7.32701 14.3497,6.63675 14.0491,6.132 13.7596,5.61604 13.3476,5.21786 12.8132,4.93745 12.2788,4.64582 11.6553,4.5 10.9427,4.5 10.4974,4.5 10.1021,4.55608 9.757,4.66825 9.4118,4.7692 9.1057,4.9094 8.83844,5.08887 8.58236,5.25712 8.36525,5.4478 8.18711,5.66091 8.02011,5.86281 7.8865,6.0591 7.78629,6.24978 7.68609,6.44046 7.61929,6.6087 7.58589,6.75452 7.51908,6.96763 7.49125,7.14149 7.50238,7.27609 7.52465,7.41069 7.59145,7.52285 7.70279,7.61258 7.81413,7.70231 7.9867,7.79765 8.22051,7.8986 8.46546,7.97712 8.65473,8.00516 8.78834,7.98273 8.93308,7.96029 9.05,7.89299 9.1391,7.78083 c 0,0 0.4747,-0.67514 0.6083,-0.80974 C 9.8922,6.82528 10.0703,6.71312 10.2819,6.6346 10.4934,6.54487 10.7328,6.5 11,6.5 c 0.579,0 1.0076,0.14021 1.286,0.42062 0.2894,0.2692 0.3769,0.49567 0.3769,1.01163 0,0.34771 -0.0612,0.62813 -0.1837,0.84124 -0.1225,0.21311 -0.2839,0.38701 -0.4843,0.52161 0,0 -0.2722,0.104 -0.4949,0.2049 -0.2115,0.0897 -0.5999,0.2381 -0.8003,0.3503 -0.1893,0.1009 -0.2954,0.207 -0.4178,0.3641 C 10.1594,10.3714 10,10.7308 10,11 Z"
     fill="#0f0f0f"
     id="path3" />
</svg>
